<?xml version="1.0" standalone="no"?>
<!DOCTYPE svg PUBLIC "-//W3C//DTD SVG 20010904//EN"
 "http://www.w3.org/TR/2001/REC-SVG-20010904/DTD/svg10.dtd">
 <?xml-stylesheet type="text/css" href="../css/style.css" ?>
<svg version="1.0" xmlns="http://www.w3.org/2000/svg"
 width="537.000000pt" height="426.000000pt" viewBox="0 0 537.000000 426.000000"
 preserveAspectRatio="xMidYMid meet">
<metadata>
Created by potrace 1.13, written by Peter Selinger 2001-2015
</metadata>
<g transform="translate(0.000000,426.000000) scale(0.100000,-0.100000)"
fill="#000000" stroke="none">
<path id="kiw" class="kiwi" d="M3190 4257 c3 -3 39 -28 80 -54 91 -60 296 -245 349 -316 21 -29 59
-92 84 -142 25 -49 61 -115 81 -145 19 -30 32 -57 29 -60 -2 -3 -10 3 -17 13
-17 22 -30 22 -22 1 6 -15 4 -15 -16 -2 -35 23 -113 132 -165 230 -54 102
-116 175 -211 249 -37 29 -84 68 -104 88 -21 19 -40 32 -43 29 -7 -7 79 -94
162 -165 59 -51 141 -161 168 -227 16 -37 92 -142 123 -170 12 -11 22 -24 22
-29 0 -32 -112 105 -170 207 -78 138 -195 244 -355 321 -96 47 -303 120 -313
111 -8 -9 -6 -10 133 -65 273 -107 377 -193 527 -431 55 -88 12 -49 -54 48
-53 78 -173 212 -191 212 -6 0 1 -12 15 -27 14 -16 47 -59 73 -98 27 -38 81
-108 120 -155 87 -104 97 -120 59 -93 -41 30 -158 152 -247 259 -42 50 -107
120 -145 155 -86 79 -272 182 -272 150 0 -6 6 -11 14 -11 7 0 25 -9 38 -20 14
-10 29 -16 32 -12 4 4 6 2 4 -3 -1 -6 38 -51 87 -100 50 -50 126 -130 170
-179 49 -56 121 -120 190 -170 85 -63 105 -82 88 -84 -57 -8 -161 61 -350 235
-238 217 -456 370 -516 361 -19 -3 -16 -7 23 -32 147 -95 184 -124 439 -349
106 -94 188 -173 182 -175 -24 -8 -101 51 -231 175 -140 134 -309 277 -317
269 -9 -9 13 -33 132 -143 225 -207 290 -271 284 -277 -11 -12 -151 96 -222
172 -220 233 -280 280 -417 325 -78 26 -180 42 -180 28 0 -4 28 -13 63 -20 34
-7 76 -19 92 -27 19 -8 22 -12 8 -8 -42 10 -24 -11 35 -41 42 -21 101 -73 222
-195 104 -104 189 -180 229 -205 44 -28 59 -41 47 -43 -58 -12 -144 37 -196
111 -17 23 -49 68 -72 101 -49 68 -133 130 -244 183 -43 20 -93 47 -109 60
-35 25 -126 68 -167 77 -50 11 -29 -9 38 -38 98 -43 173 -103 339 -271 83 -84
173 -167 200 -185 43 -27 46 -31 20 -25 -16 3 -61 30 -100 59 -38 29 -86 64
-105 78 -19 14 -66 54 -105 88 -130 116 -284 225 -357 253 -36 13 -16 -9 40
-45 31 -20 86 -62 122 -93 108 -93 306 -252 370 -297 84 -59 58 -60 -32 -2
-105 67 -172 121 -289 229 -56 52 -105 93 -107 90 -7 -6 39 -65 109 -140 70
-74 198 -177 277 -222 54 -31 55 -33 26 -33 -48 0 -160 85 -308 235 -72 72
-153 146 -179 164 -74 50 -207 104 -207 84 0 -5 19 -16 41 -26 67 -31 131 -89
231 -208 93 -111 152 -171 213 -216 l30 -23 -34 12 c-44 14 -131 97 -239 228
-126 151 -199 204 -327 236 -45 11 -27 -11 24 -29 83 -29 162 -97 270 -231 56
-69 101 -127 101 -130 0 -8 -60 28 -213 127 -76 49 -140 87 -143 85 -8 -9 214
-227 268 -263 32 -21 95 -52 140 -71 71 -29 78 -34 56 -39 -20 -5 -51 6 -130
46 -95 48 -112 62 -228 180 -132 135 -181 169 -278 190 -98 21 -102 6 -7 -29
89 -32 181 -79 172 -89 -3 -2 -25 6 -48 18 -35 18 -173 69 -186 69 -2 0 -3 -4
-3 -9 0 -5 35 -23 78 -41 127 -52 196 -88 222 -116 l25 -26 -55 30 c-30 17
-102 49 -159 72 -127 50 -169 71 -210 106 -44 37 -52 21 -11 -21 38 -39 124
-86 255 -140 117 -47 163 -74 260 -152 44 -35 106 -77 138 -93 31 -16 53 -31
47 -35 -17 -10 -90 29 -195 104 -117 85 -168 112 -328 175 -111 44 -213 97
-266 138 -40 31 -43 20 -8 -35 19 -29 39 -64 46 -77 l12 -25 -20 23 c-25 29
-36 12 -21 -33 12 -37 60 -84 113 -111 17 -10 115 -48 217 -86 180 -67 286
-118 263 -125 -6 -2 -42 11 -80 30 -106 53 -202 85 -326 106 -140 24 -252 61
-337 110 -120 70 -190 100 -190 80 0 -5 6 -9 13 -9 8 0 60 -30 116 -66 140
-90 187 -110 321 -135 159 -29 296 -64 354 -89 58 -24 58 -35 -1 -15 -84 29
-201 56 -287 65 -109 13 -220 37 -261 57 -16 9 -63 38 -103 65 -41 27 -76 47
-79 45 -20 -21 88 -118 162 -146 31 -12 137 -35 234 -52 186 -31 306 -60 350
-84 34 -19 13 -19 -32 0 -54 22 -111 33 -247 45 -182 15 -259 35 -405 102
-140 65 -285 105 -285 80 0 -5 28 -14 63 -20 42 -8 121 -41 252 -106 200 -99
234 -111 355 -121 90 -8 221 -36 214 -46 -10 -17 -87 -19 -174 -4 -142 25
-294 77 -442 153 -5 2 -8 -1 -8 -6 0 -28 266 -143 382 -166 100 -19 34 -21
-93 -1 -123 18 -178 39 -324 125 -114 67 -171 90 -257 105 -58 9 -45 -9 19
-29 54 -17 96 -38 293 -144 96 -52 181 -79 294 -94 l91 -13 -70 -5 c-187 -14
-284 14 -449 128 -49 34 -93 62 -98 62 -17 0 -7 -16 20 -32 15 -10 41 -29 57
-43 l30 -26 -45 26 c-44 26 -146 75 -155 75 -17 0 2 -18 36 -34 22 -11 43 -24
46 -29 3 -5 -4 -4 -15 2 -45 24 -44 3 1 -24 17 -10 62 -40 98 -66 85 -62 200
-117 261 -125 26 -4 46 -10 43 -14 -5 -9 -76 3 -119 20 -49 18 -165 79 -291
150 -127 73 -207 104 -294 116 -40 5 -52 4 -47 -5 4 -6 14 -11 22 -11 51 0
327 -119 364 -157 13 -14 13 -15 -5 -9 -18 7 -169 50 -342 97 -39 10 -79 22
-87 25 -9 3 -16 2 -16 -4 0 -6 12 -15 28 -20 15 -6 22 -11 15 -11 -7 -1 -35 8
-63 19 -27 11 -50 16 -50 11 0 -18 121 -61 270 -96 243 -58 504 -127 514 -135
9 -9 -53 -20 -129 -23 -41 -1 -69 7 -155 47 -109 50 -164 70 -365 131 -66 20
-144 50 -172 65 -63 34 -68 24 -12 -23 42 -36 141 -73 269 -101 61 -13 62 -14
24 -15 -111 -3 -267 42 -322 92 -29 26 -29 11 0 -20 l22 -24 -39 17 c-22 9
-46 21 -54 28 -11 8 -15 8 -18 -1 -4 -10 -13 -9 -40 2 -20 9 -38 13 -41 10 -8
-7 -7 -8 116 -69 198 -99 414 -157 593 -160 75 -1 95 -4 91 -14 -3 -9 2 -11
19 -8 13 3 75 13 138 22 62 8 120 18 127 21 8 3 14 2 14 -1 0 -4 -100 -55
-222 -115 -123 -59 -232 -117 -242 -129 -11 -12 -16 -22 -12 -22 4 0 95 44
203 98 226 112 227 112 192 84 -15 -12 -90 -54 -168 -93 -83 -42 -161 -89
-189 -114 -53 -49 -52 -71 2 -30 19 14 51 28 70 30 63 6 252 126 411 261 67
58 141 101 153 89 7 -6 -83 -107 -182 -204 -48 -46 -84 -86 -82 -88 14 -14
127 84 257 224 71 76 86 86 200 141 227 109 533 222 724 267 310 73 592 81
935 25 384 -63 698 -183 990 -378 171 -114 261 -187 451 -365 249 -232 394
-356 405 -345 2 3 -31 47 -74 99 -91 108 -283 297 -390 383 -94 74 -114 106
-109 169 2 26 1 47 -3 47 -4 0 -17 -19 -28 -42 -14 -29 -21 -36 -21 -23 -1 11
8 34 19 50 11 17 20 44 20 60 0 30 0 30 -25 -14 -14 -24 -28 -54 -31 -67 -8
-30 -18 -30 -38 -2 -12 16 -16 47 -16 109 0 84 -13 149 -31 149 -4 0 -6 -6 -3
-14 3 -8 6 -62 7 -121 l2 -106 -22 25 c-14 17 -24 45 -28 83 -9 92 -15 123
-23 123 -4 0 -6 -37 -5 -82 2 -77 1 -81 -11 -53 -8 16 -17 74 -21 130 -6 80
-9 95 -17 75 -5 -14 -8 -67 -6 -118 3 -97 -2 -105 -36 -58 -18 24 -21 40 -19
124 2 91 -8 165 -25 176 -4 2 -6 -53 -4 -122 2 -89 0 -122 -7 -112 -6 8 -11
61 -11 118 0 60 -4 102 -10 102 -15 0 -22 -43 -18 -109 1 -34 0 -61 -4 -61 -5
0 -8 33 -8 74 0 75 -14 136 -32 136 -6 0 -8 -6 -5 -13 8 -21 20 -223 13 -216
-3 3 -10 49 -16 102 -9 86 -33 178 -44 166 -6 -6 21 -251 30 -274 7 -20 7 -20
-14 -2 -33 30 -51 78 -71 198 -21 124 -28 149 -43 149 -5 0 -7 -8 -4 -17 14
-46 25 -111 25 -138 0 -18 -9 4 -22 55 -12 47 -34 105 -48 130 -14 25 -34 61
-45 80 -10 19 -20 37 -22 39 -1 3 -7 0 -12 -5 -7 -7 7 -45 41 -115 45 -93 99
-273 85 -287 -3 -2 -14 29 -26 69 -43 147 -61 198 -76 209 -17 15 -17 15 1
-35 8 -22 14 -47 14 -55 0 -8 -6 1 -14 21 -16 45 -64 119 -77 119 -5 0 -7 -6
-5 -12 7 -16 40 -121 67 -213 12 -38 24 -76 27 -84 3 -8 1 -11 -4 -8 -18 11
-41 69 -68 172 -28 107 -68 186 -123 247 -49 54 -61 47 -18 -9 20 -27 45 -64
56 -85 22 -40 94 -288 86 -295 -11 -11 -47 82 -67 174 -12 54 -29 114 -39 133
-24 45 -88 106 -170 160 -36 24 -82 57 -103 73 -21 16 -41 27 -44 23 -10 -10
27 -44 113 -106 87 -63 153 -129 179 -179 9 -18 25 -72 35 -121 11 -50 24 -99
30 -111 7 -11 9 -23 7 -26 -10 -9 -36 54 -53 127 -9 40 -23 89 -31 108 -19 46
-88 118 -203 213 -90 74 -144 130 -184 192 -23 38 -33 27 -12 -14 9 -18 16
-34 16 -37 0 -3 -26 20 -58 50 -32 31 -80 67 -108 81 -49 24 -103 44 -94 34z"/>
<path class="kiwi" d="M2875 3534 c-374 -43 -564 -97 -1017 -291 -157 -67 -204 -93 -167
-93 15 0 351 126 428 161 35 16 65 29 68 29 2 0 -90 -91 -203 -202 -184 -181
-271 -259 -323 -288 -9 -4 -13 -12 -9 -15 9 -9 139 60 248 133 116 76 290 252
251 252 -6 0 -51 -39 -101 -86 -50 -48 -93 -84 -96 -82 -5 6 320 311 338 317
13 4 12 4 -112 -159 -175 -230 -304 -348 -460 -424 -83 -40 -90 -61 -12 -35
91 29 330 175 405 247 20 20 37 31 37 25 0 -15 -85 -89 -132 -117 -42 -23 -50
-41 -15 -31 99 30 220 161 307 335 36 72 108 178 136 201 20 15 22 19 -57
-101 -20 -30 -60 -99 -89 -152 -29 -53 -68 -113 -86 -134 -42 -45 -37 -56 10
-20 44 33 81 87 135 196 39 77 142 233 164 247 21 13 12 -7 -30 -61 -50 -67
-87 -135 -79 -144 7 -6 2 -13 59 74 26 39 54 78 64 85 21 17 17 10 -37 -71
-21 -30 -63 -98 -95 -150 -68 -111 -148 -199 -205 -226 -22 -10 -40 -22 -40
-26 0 -12 6 -10 57 14 68 32 148 118 227 243 67 108 172 255 181 255 12 0 2
-19 -41 -75 -25 -33 -76 -110 -114 -171 -68 -108 -144 -200 -185 -222 -11 -6
-17 -14 -13 -17 11 -12 74 33 123 87 25 28 65 83 87 122 23 39 63 98 89 131
56 71 189 204 189 190 0 -6 -38 -49 -85 -95 -86 -85 -184 -214 -172 -226 3 -4
43 33 88 80 83 88 210 199 264 230 19 12 14 5 -15 -20 -25 -21 -76 -71 -115
-113 -38 -41 -105 -111 -147 -155 -43 -44 -76 -82 -73 -85 13 -13 77 33 126
91 108 126 309 312 309 285 0 -2 -43 -42 -96 -87 -94 -82 -183 -184 -170 -197
3 -3 1 -12 -5 -19 -8 -10 -7 -17 3 -28 13 -13 20 -12 57 7 24 12 77 50 119 85
43 34 109 89 149 121 39 33 97 71 128 86 52 24 184 59 193 50 2 -2 -16 -12
-40 -23 -24 -10 -96 -51 -162 -90 -65 -40 -125 -72 -132 -72 -8 0 -14 -5 -14
-11 0 -6 6 -9 13 -6 52 21 53 21 39 4 -8 -9 -33 -24 -58 -33 -48 -18 -61 -39
-16 -27 15 3 35 6 45 5 10 0 80 30 155 68 124 62 295 131 325 130 7 -1 -44
-23 -111 -50 -171 -69 -357 -169 -341 -184 2 -2 80 32 173 75 183 86 315 135
386 144 40 5 38 3 -20 -14 -152 -46 -440 -179 -440 -203 0 -11 -1 -12 107 32
245 101 447 170 459 158 2 -3 -24 -15 -58 -28 -106 -38 -254 -119 -221 -120 7
0 63 20 123 45 101 40 234 85 256 85 24 0 -23 -21 -111 -50 -141 -46 -264
-110 -211 -110 8 0 18 5 21 11 4 6 13 8 20 5 7 -2 16 1 18 8 6 15 123 48 247
70 135 23 186 29 175 18 -5 -5 -62 -17 -125 -26 -98 -15 -266 -52 -279 -63
-14 -10 12 -12 55 -2 27 6 117 14 199 19 83 5 191 12 240 15 55 4 100 3 115
-3 23 -10 24 -11 3 -11 -12 -1 -72 -17 -133 -36 -61 -19 -127 -35 -146 -35
-19 0 -34 -5 -34 -12 0 -8 58 -10 228 -5 125 3 247 2 272 -3 44 -7 43 -8 -22
-9 -38 0 -68 -5 -68 -10 0 -4 37 -12 83 -15 53 -5 101 -16 136 -32 30 -13 56
-22 59 -19 7 6 9 4 -73 60 -88 59 -320 173 -448 220 -225 82 -481 141 -711
164 -101 10 -350 13 -421 5z"/>
<path class="kiwi" d="M50 3320 c0 -4 22 -11 48 -15 26 -3 113 -29 192 -56 80 -28 213 -73
295 -102 83 -28 142 -53 133 -55 -27 -5 -276 63 -385 106 -108 43 -177 62
-220 62 -19 -1 1 -12 62 -34 104 -39 205 -85 188 -85 -17 -1 -244 66 -303 89
-58 23 -60 23 -60 11 0 -15 196 -88 322 -120 214 -55 416 -73 631 -55 84 8
105 24 31 24 -85 0 -248 41 -499 125 -137 46 -275 88 -305 93 -95 18 -130 21
-130 12z"/>
<path class="kiwi" d="M1970 3226 c-41 -23 -121 -70 -178 -104 -57 -33 -131 -71 -165 -83
-43 -17 -55 -25 -41 -27 12 -2 49 8 83 22 105 43 87 26 -146 -130 -67 -45
-128 -84 -135 -87 -7 -2 -10 -8 -6 -12 3 -4 42 12 85 34 72 38 154 95 303 214
33 27 60 44 60 38 0 -14 -163 -147 -279 -228 -2 -2 -2 -6 1 -9 9 -9 79 30 139
77 30 24 110 98 179 164 69 67 140 130 158 140 30 18 42 35 24 35 -4 0 -41
-20 -82 -44z"/>
<path class="kiwi" d="M80 3129 c0 -5 1 -9 3 -9 1 0 65 -16 141 -35 141 -36 187 -53 108
-41 -38 6 -43 4 -40 -11 2 -12 14 -19 33 -21 17 -1 41 -5 55 -9 23 -6 21 -7
-15 -14 -77 -15 311 0 430 16 66 9 122 18 124 21 11 11 -14 11 -139 2 -145
-10 -157 -9 -460 61 -143 33 -240 49 -240 40z"/>
<path class="kiwi" d="M1145 3054 c-151 -41 -504 -105 -612 -111 -56 -3 -100 -10 -97 -14
11 -18 187 -9 309 16 67 13 131 27 141 31 18 5 18 5 1 -6 -10 -7 -89 -29 -175
-51 -142 -36 -205 -59 -159 -59 24 0 209 45 287 69 70 22 94 26 70 11 -8 -5
-11 -12 -8 -16 4 -3 71 22 150 56 79 34 155 67 171 73 15 6 27 15 27 19 0 10
1 10 -105 -18z"/>
<path class="kiwi" d="M5286 1784 c-38 -31 -165 -151 -284 -266 -234 -227 -356 -330 -527
-443 -270 -180 -543 -289 -896 -360 -420 -84 -764 -72 -1152 41 -160 47 -446
153 -575 215 -97 45 -111 56 -220 166 -110 111 -196 182 -207 171 -3 -3 47
-56 111 -119 64 -63 125 -126 135 -141 l20 -27 -42 14 c-22 8 -80 46 -127 83
-48 38 -115 89 -150 113 -52 36 -65 41 -72 29 -7 -11 -10 -12 -10 -2 0 7 -4
10 -10 7 -11 -7 -138 60 -156 81 -6 7 -17 14 -25 16 -8 2 -33 16 -57 31 -45
30 -65 30 -41 1 24 -30 141 -100 238 -144 106 -48 181 -91 181 -103 0 -5 -20
3 -45 17 -34 21 -279 137 -363 173 -6 3 -12 0 -12 -6 0 -16 69 -53 275 -146
184 -83 239 -113 185 -101 -35 8 -256 36 -283 36 -18 0 -19 -2 -7 -10 11 -7
-1 -10 -40 -10 -180 -1 -458 -82 -650 -190 -86 -49 -85 -48 -78 -56 4 -3 20 2
36 10 22 12 31 13 34 4 3 -8 20 -3 51 15 44 26 65 24 32 -3 -8 -7 -15 -17 -15
-22 0 -5 17 5 37 21 47 37 102 57 212 76 131 23 146 16 31 -15 -133 -35 -206
-68 -248 -110 -18 -18 -32 -34 -30 -35 2 -2 44 16 93 40 50 24 144 60 211 79
66 20 179 63 249 97 71 33 143 63 161 66 44 7 168 -7 158 -17 -11 -10 -257
-83 -479 -141 -167 -43 -285 -85 -285 -100 0 -12 -3 -12 57 11 59 22 70 19 22
-5 -73 -38 -26 -26 302 76 70 21 130 39 135 39 5 0 -9 -12 -30 -26 -58 -40
-231 -120 -302 -141 -73 -20 -85 -37 -21 -27 86 14 184 56 321 138 182 110
284 158 344 162 l47 3 -43 -9 c-73 -16 -160 -61 -276 -143 -61 -43 -118 -82
-126 -87 -24 -13 -4 -23 20 -10 12 7 20 8 16 2 -3 -5 -19 -15 -36 -22 -26 -11
-42 -30 -25 -30 12 0 112 54 153 82 24 17 45 28 48 26 2 -3 -27 -27 -66 -54
-64 -46 -82 -64 -61 -64 4 0 58 35 119 78 129 92 185 118 279 132 84 12 210
13 217 1 3 -4 -25 -11 -63 -15 -126 -11 -247 -58 -392 -152 -67 -44 -218 -113
-246 -114 -7 0 -13 -5 -13 -10 0 -7 14 -9 38 -5 89 15 146 41 285 129 49 30
114 65 145 77 61 23 248 59 297 57 27 -1 27 -1 5 -5 -72 -13 -156 -39 -250
-80 -104 -45 -200 -101 -200 -115 0 -11 14 -10 25 1 23 22 178 91 265 119 125
40 260 65 305 56 19 -3 35 -10 35 -14 0 -11 -119 -38 -221 -50 -107 -13 -177
-36 -288 -97 -170 -93 -257 -133 -313 -145 -61 -13 -82 -31 -25 -22 86 14 132
30 252 89 144 71 199 87 390 110 154 19 220 32 258 52 16 8 36 13 45 10 31 -7
-171 -65 -338 -96 -195 -38 -271 -62 -333 -107 -39 -29 -100 -114 -81 -114 3
0 31 20 62 43 119 91 178 114 374 143 104 15 258 55 313 81 l30 14 -23 -20
c-31 -27 -178 -73 -317 -101 -169 -33 -223 -54 -355 -140 -66 -43 -126 -80
-133 -83 -6 -2 -9 -7 -6 -11 8 -9 73 19 135 59 115 74 218 114 361 140 119 21
223 57 328 111 48 25 90 43 92 40 12 -12 -90 -63 -263 -133 -104 -42 -213 -91
-242 -109 -55 -36 -92 -84 -92 -121 0 -27 15 -30 29 -5 6 10 11 12 11 4 0 -7
-16 -36 -35 -65 -19 -28 -35 -57 -35 -64 0 -7 33 9 73 36 86 58 129 80 234
122 122 48 221 104 303 169 84 67 185 125 200 115 6 -4 -11 -17 -38 -31 -26
-13 -86 -54 -133 -92 -124 -100 -136 -107 -287 -176 -153 -69 -220 -111 -252
-157 -30 -42 -20 -46 21 -8 32 30 67 48 304 159 50 23 98 49 108 58 16 15 17
15 11 -1 -9 -25 -85 -71 -202 -122 -107 -46 -150 -71 -141 -79 5 -5 175 61
229 89 54 28 44 9 -12 -23 -55 -31 -178 -82 -197 -82 -6 0 -11 -4 -11 -10 0
-5 14 -7 33 -4 129 23 211 67 281 149 114 135 188 199 283 248 84 44 143 59
143 38 0 -4 -20 -14 -45 -21 -70 -20 -192 -97 -254 -159 -101 -103 -172 -184
-166 -189 3 -3 33 14 68 38 104 74 220 151 252 167 29 15 29 15 15 -4 -80
-110 -178 -228 -224 -270 -50 -46 -147 -103 -175 -103 -6 0 -11 -4 -11 -10 0
-14 12 -13 77 12 109 40 174 95 280 234 90 118 161 192 206 215 52 27 57 19 7
-16 -48 -33 -103 -93 -189 -203 -82 -107 -177 -194 -235 -218 -25 -10 -46 -22
-46 -27 0 -20 134 34 207 84 26 18 120 106 208 195 167 169 238 224 289 224
30 0 29 -2 -21 -29 -100 -55 -284 -222 -368 -334 -53 -71 -18 -48 102 66 145
138 332 281 348 265 2 -2 -52 -48 -120 -102 -69 -55 -171 -141 -227 -192 -57
-52 -133 -115 -170 -141 -37 -27 -68 -52 -68 -56 0 -13 108 48 175 98 33 25
111 91 174 147 62 57 132 116 155 133 23 16 60 46 84 66 24 21 57 42 75 48
l32 10 -35 -26 c-19 -15 -118 -111 -220 -214 -181 -183 -246 -236 -348 -281
-26 -11 -42 -22 -36 -25 18 -6 121 36 177 74 28 19 84 51 122 70 141 72 198
122 279 247 59 92 111 140 165 153 70 17 75 4 12 -38 -33 -22 -129 -113 -214
-202 -95 -99 -177 -176 -212 -197 -31 -19 -64 -41 -73 -48 -15 -11 -14 -12 8
-6 51 14 54 14 25 0 -16 -8 -65 -23 -107 -33 -83 -19 -106 -37 -35 -27 201 28
320 99 484 285 126 145 282 284 299 267 2 -3 -91 -100 -208 -216 -117 -116
-210 -214 -206 -218 10 -10 107 76 299 262 156 152 216 200 241 192 12 -4
-382 -370 -477 -443 -32 -26 -83 -61 -112 -78 -60 -36 -68 -53 -22 -43 81 16
259 149 471 353 159 153 219 202 292 238 99 49 100 26 1 -50 -135 -106 -160
-130 -268 -263 -55 -67 -126 -143 -158 -168 -33 -25 -59 -49 -59 -54 0 -5 -9
-12 -20 -15 -11 -3 -20 -11 -20 -16 0 -31 164 65 249 145 35 34 108 115 161
181 93 113 250 278 250 262 0 -4 -33 -49 -74 -100 -92 -116 -180 -247 -171
-255 10 -10 75 69 151 180 58 87 84 119 84 105 0 -3 -19 -36 -41 -73 -68 -112
-164 -229 -231 -280 -62 -46 -262 -148 -385 -195 -35 -13 -63 -27 -63 -31 0
-11 -3 -12 110 27 135 47 256 104 339 160 83 55 184 161 230 241 58 102 118
188 157 224 46 43 35 23 -27 -52 -26 -31 -71 -103 -100 -160 -48 -93 -65 -115
-181 -230 -70 -70 -128 -133 -128 -139 0 -14 101 73 211 181 72 71 95 102 134
180 54 107 94 170 138 218 51 53 51 36 0 -25 -25 -32 -57 -83 -70 -113 -70
-163 -133 -243 -274 -351 -75 -57 -127 -114 -115 -126 3 -3 15 6 26 20 11 14
55 51 98 83 42 32 110 92 149 133 62 63 82 93 137 205 61 126 122 223 133 213
2 -3 -16 -40 -41 -81 -26 -42 -56 -99 -67 -128 -35 -89 -103 -180 -220 -294
-103 -100 -218 -195 -251 -207 -7 -2 -10 -7 -6 -11 12 -14 114 48 177 108 56
53 62 57 47 28 -28 -55 -13 -57 22 -3 18 28 79 92 135 143 208 190 225 213
251 342 9 43 26 95 37 115 11 20 17 27 14 16 -9 -27 -30 -118 -45 -187 -16
-80 -73 -152 -192 -245 -88 -68 -138 -118 -138 -138 0 -4 24 13 53 37 28 25
92 73 140 107 118 85 149 132 177 271 20 100 55 199 65 188 5 -5 -47 -227 -65
-274 -6 -15 -29 -55 -51 -87 -43 -62 -45 -92 -3 -42 54 66 94 154 124 270 28
110 54 174 67 162 2 -3 0 -14 -6 -25 -6 -11 -22 -67 -36 -126 -13 -58 -32
-120 -41 -137 -8 -17 -13 -33 -10 -37 9 -8 33 25 67 93 22 43 29 52 26 30 -3
-16 -9 -38 -12 -48 -4 -9 -3 -17 3 -17 11 0 43 92 62 180 7 30 19 66 27 80 10
18 12 20 9 5 -3 -11 -10 -51 -16 -89 -7 -45 -29 -108 -60 -176 -28 -59 -50
-112 -50 -118 0 -21 15 -12 34 21 61 102 80 146 97 225 18 84 19 85 14 27 -2
-33 -7 -78 -11 -100 -5 -31 -4 -37 5 -29 7 6 21 69 32 139 20 132 36 181 71
212 21 18 21 18 14 -2 -9 -22 -35 -278 -30 -284 11 -13 36 85 44 171 4 55 11
103 15 106 8 8 -3 -190 -12 -223 -5 -19 -4 -19 13 -2 14 13 19 36 22 110 4
110 12 129 12 29 0 -73 6 -102 21 -102 5 0 9 51 10 113 1 65 4 102 8 87 4 -14
7 -69 7 -122 -1 -54 2 -98 6 -98 17 0 28 85 23 172 -5 78 -4 98 12 127 33 62
41 50 40 -59 -1 -137 18 -155 25 -23 7 131 26 181 27 71 1 -43 5 -78 10 -78 5
0 12 35 16 78 7 71 28 142 44 142 9 0 7 -211 -2 -235 -7 -17 -5 -16 12 4 18
20 21 36 21 123 0 69 5 108 15 128 16 31 35 40 35 18 0 -19 52 -118 62 -118
14 0 9 24 -17 72 -14 26 -25 55 -25 65 1 10 10 -1 22 -24 25 -53 38 -55 31 -4
-8 59 19 103 116 185 47 40 140 129 206 198 118 122 255 288 238 288 -5 0 -40
-25 -77 -56z"/>
<path class="kiwi" d="M1690 1472 c0 -4 22 -16 49 -25 113 -41 262 -150 372 -272 69 -77
252 -305 248 -310 -5 -4 -167 135 -287 246 -42 38 -71 69 -65 69 5 0 54 -41
109 -91 103 -95 141 -105 58 -16 -55 59 -137 128 -205 175 -48 32 -250 142
-262 142 -16 0 -5 -17 22 -33 62 -37 136 -99 283 -238 84 -80 176 -166 203
-191 l50 -47 -120 48 c-157 63 -394 143 -409 138 -15 -5 25 -25 164 -82 531
-218 833 -284 1253 -272 355 9 686 86 1027 237 160 70 420 226 420 251 0 5
-26 -4 -58 -21 -46 -24 -77 -32 -141 -37 -101 -7 -116 -23 -24 -24 47 0 62 -3
48 -9 -11 -5 -128 -9 -260 -10 -132 -1 -249 -5 -260 -10 -16 -7 -13 -9 16 -9
20 -1 77 -13 125 -28 49 -14 114 -29 144 -33 l55 -6 -30 -13 c-23 -10 -57 -11
-140 -5 -60 4 -166 9 -235 10 -69 1 -149 6 -179 13 -29 6 -58 8 -64 4 -16 -10
170 -50 293 -64 120 -14 174 -33 65 -24 -148 13 -333 53 -393 87 -38 21 -42
22 -42 7 0 -15 111 -64 225 -99 55 -17 104 -35 109 -40 16 -16 -162 36 -273
79 -111 43 -121 46 -121 32 0 -10 174 -91 248 -115 28 -10 52 -20 52 -23 0
-16 -222 53 -425 132 -134 52 -155 59 -155 48 0 -25 294 -153 445 -194 65 -17
66 -18 20 -13 -76 9 -193 49 -379 130 -93 41 -171 72 -173 70 -14 -14 155
-100 327 -168 69 -27 109 -46 90 -42 -57 10 -228 78 -337 132 -56 29 -109 49
-117 46 -8 -3 -30 -1 -50 4 -56 16 -42 0 32 -35 37 -18 55 -31 40 -28 -16 3
-28 1 -28 -5 0 -5 6 -10 13 -10 7 0 65 -30 128 -66 62 -36 134 -74 159 -84 43
-18 44 -19 15 -19 -46 -1 -142 26 -199 57 -28 15 -109 73 -180 130 -136 109
-212 159 -224 147 -4 -3 1 -11 11 -16 31 -18 176 -130 184 -142 10 -16 -33 12
-140 91 -48 35 -91 61 -95 57 -4 -3 1 -13 11 -20 13 -9 15 -14 5 -17 -18 -6
46 -82 129 -155 146 -127 170 -159 48 -62 -54 42 -116 104 -230 228 -33 36
-113 87 -122 77 -6 -6 315 -324 349 -346 21 -14 38 -29 38 -33 0 -25 -239 171
-334 272 -26 29 -51 50 -54 47 -12 -13 76 -124 171 -217 55 -54 98 -101 95
-104 -13 -13 -203 194 -265 290 -75 115 -142 188 -195 216 -45 23 -51 11 -9
-14 41 -24 107 -104 176 -212 32 -49 75 -110 95 -135 20 -25 45 -58 54 -75 42
-72 -68 64 -146 179 -130 194 -185 251 -280 291 -48 20 -50 4 -2 -18 60 -29
133 -107 212 -227 42 -63 93 -138 114 -167 21 -29 38 -55 38 -58 0 -15 -25 13
-77 87 -31 45 -59 76 -61 70 -5 -15 30 -73 80 -133 41 -51 50 -73 17 -43 -38
34 -117 148 -164 239 -52 97 -104 168 -137 186 -35 19 -32 1 9 -45 21 -24 59
-82 84 -127 24 -46 67 -115 94 -153 69 -96 75 -110 22 -53 -25 27 -60 76 -78
109 -132 234 -235 348 -346 382 -38 12 -26 -8 21 -32 23 -13 63 -44 87 -70
l44 -46 -46 36 c-114 91 -327 211 -414 234 -59 16 -65 17 -65 6z"/>
<path class="kiwi" d="M1410 1412 c0 -5 19 -17 43 -28 49 -22 341 -213 335 -219 -2 -3 -26
4 -54 14 -67 25 -104 33 -104 23 0 -5 19 -15 43 -22 52 -15 173 -76 292 -145
96 -56 165 -89 165 -77 0 4 -19 19 -43 34 -23 15 -94 75 -157 134 -63 59 -137
125 -164 146 -51 41 -164 103 -173 95 -2 -3 33 -31 79 -63 115 -80 218 -163
218 -175 0 -11 -26 7 -175 122 -49 38 -135 92 -190 119 -103 52 -115 56 -115
42z"/>
<path class="kiwi" d="M600 1326 c0 -11 48 -26 164 -50 135 -29 199 -46 194 -51 -2 -3 -60
6 -129 20 -125 25 -322 34 -333 16 -3 -4 43 -11 102 -14 115 -6 473 -64 627
-101 52 -13 95 -20 95 -16 0 4 -28 18 -62 32 -35 14 -109 44 -166 68 -57 23
-106 39 -110 35 -4 -3 0 -11 8 -16 13 -9 12 -10 -2 -6 -9 3 -78 21 -155 40
-148 38 -233 53 -233 43z"/>
<path class="kiwi" d="M460 1197 c0 -12 -9 -17 -32 -18 -52 -2 -83 -13 -86 -33 -3 -13 1
-17 15 -13 38 11 83 18 83 14 0 -7 -35 -18 -182 -58 -65 -17 -118 -35 -118
-40 0 -12 31 -5 285 60 l220 56 194 -2 c106 -1 191 0 189 2 -9 10 -266 36
-410 42 -143 6 -158 5 -158 -10z"/>
<path class="kiwi" d="M740 1129 c-122 -8 -244 -32 -384 -74 -133 -40 -286 -103 -286 -117
0 -6 8 -7 18 -3 90 38 351 120 337 106 -12 -12 -211 -101 -225 -101 -6 0 -10
-4 -10 -10 0 -5 4 -10 9 -10 19 0 146 43 219 74 94 40 324 109 349 104 10 -2
-11 -14 -47 -27 -36 -13 -157 -58 -270 -101 -113 -43 -231 -84 -263 -91 -60
-13 -81 -33 -24 -23 91 16 198 48 346 103 208 79 365 126 466 141 105 16 128
20 124 24 -8 8 -270 12 -359 5z"/>
</g>
</svg>
